<?xml version="1.0" encoding="UTF-8" standalone="no"?>
<svg
   xmlns:dc="http://purl.org/dc/elements/1.1/"
   xmlns:cc="http://creativecommons.org/ns#"
   xmlns:rdf="http://www.w3.org/1999/02/22-rdf-syntax-ns#"
   xmlns:svg="http://www.w3.org/2000/svg"
   xmlns="http://www.w3.org/2000/svg"
   xmlns:sodipodi="http://sodipodi.sourceforge.net/DTD/sodipodi-0.dtd"
   xmlns:inkscape="http://www.inkscape.org/namespaces/inkscape"
   width="1536"
   height="1498.4706"
   viewBox="0 0 1536 1498.4706"
   id="svg3384"
   version="1.1"
   inkscape:version="0.91 r13725"
   sodipodi:docname="github.svg">
  <metadata
     id="metadata3392">
    <rdf:RDF>
      <cc:Work
         rdf:about="">
        <dc:format>image/svg+xml</dc:format>
        <dc:type
           rdf:resource="http://purl.org/dc/dcmitype/StillImage" />
        <dc:title></dc:title>
      </cc:Work>
    </rdf:RDF>
  </metadata>
  <defs
     id="defs3390" />
  <sodipodi:namedview
     pagecolor="#ffffff"
     bordercolor="#666666"
     borderopacity="1"
     objecttolerance="10"
     gridtolerance="10"
     guidetolerance="10"
     inkscape:pageopacity="0"
     inkscape:pageshadow="2"
     inkscape:window-width="1280"
     inkscape:window-height="684"
     id="namedview3388"
     showgrid="false"
     fit-margin-top="0"
     fit-margin-left="0"
     fit-margin-right="0"
     fit-margin-bottom="0"
     inkscape:zoom="0.26897321"
     inkscape:cx="768"
     inkscape:cy="730.47059"
     inkscape:window-x="0"
     inkscape:window-y="1"
     inkscape:window-maximized="1"
     inkscape:current-layer="svg3384" />
  <path
     d="m 1536,768 q 0,251 -146.5,451.5 Q 1243,1420 1011,1497 q -27,5 -39.5,-7 -12.5,-12 -12.5,-30 l 0,-211 q 0,-97 -52,-142 57,-6 102.5,-18 45.5,-12 94,-39 48.5,-27 81,-66.5 32.5,-39.5 53,-105 Q 1258,813 1258,728 q 0,-121 -79,-206 37,-91 -8,-204 -28,-9 -81,11 -53,20 -92,44 l -38,24 Q 867,371 768,371 669,371 576,397 560,386 533.5,370 507,354 450,331.5 393,309 364,318 q -44,113 -7,204 -79,85 -79,206 0,85 20.5,150 20.5,65 52.5,105 32,40 80.5,67 48.5,27 94,39 45.5,12 102.5,18 -40,36 -49,103 -21,10 -45,15 -24,5 -57,5 -33,0 -65.5,-21.5 Q 379,1187 356,1146 337,1114 307.5,1094 278,1074 258,1070 l -20,-3 q -21,0 -29,4.5 -8,4.5 -5,11.5 3,7 9,14 6,7 13,12 l 7,5 q 22,10 43.5,38 21.5,28 31.5,51 l 10,23 q 13,38 44,61.5 31,23.5 67,30 36,6.5 69.5,7 33.5,0.5 55.5,-3.5 l 23,-4 q 0,38 0.5,89 0.5,51 0.5,54 0,18 -13,30 -13,12 -40,7 Q 293,1420 146.5,1219.5 0,1019 0,768 0,559 103,382.5 206,206 382.5,103 559,0 768,0 977,0 1153.5,103 1330,206 1433,382.5 1536,559 1536,768 Z"
     id="path3386"
     inkscape:connector-curvature="0"
     style="fill:#ffffff" />
</svg>
